<svg xmlns="http://www.w3.org/2000/svg" xmlns:xlink="http://www.w3.org/1999/xlink" width="210.447" height="45.608" viewBox="0 0 210.447 45.608">
  <defs>
    <clipPath id="clip-path">
      <rect id="Retângulo_2" data-name="Retângulo 2" width="210.447" height="45.607" fill="none"/>
    </clipPath>
  </defs>
  <g id="Header" transform="translate(-110.5 -37.341)">
    <g id="logo" transform="translate(110.5 37.341)">
      <g id="Grupo_1" data-name="Grupo 1" clip-path="url(#clip-path)">
        <path id="Caminho_1" data-name="Caminho 1" d="M126.144,70.244v9.077h1.383V73.662h13.221V72.279H127.527V70.244A2.475,2.475,0,0,1,130,67.772h14.5V66.389H130a3.86,3.86,0,0,0-3.855,3.855" transform="translate(-85.515 -45.006)" fill="#f4f4f4"/>
        <path id="Caminho_2" data-name="Caminho 2" d="M221.31,75.032V65.75h-1.357v9.282a3.86,3.86,0,0,0,3.855,3.855h14.478V77.53H223.808a2.5,2.5,0,0,1-2.5-2.5" transform="translate(-149.11 -44.573)" fill="#f4f4f4"/>
        <path id="Caminho_3" data-name="Caminho 3" d="M313.683,69.606v5.427a3.86,3.86,0,0,0,3.855,3.855h14.478V77.531H317.538a2.5,2.5,0,0,1-2.5-2.5V73h13.221V71.641H315.04V69.606a2.5,2.5,0,0,1,2.5-2.5h14.478V65.751H317.538a3.86,3.86,0,0,0-3.855,3.855" transform="translate(-212.651 -44.574)" fill="#f4f4f4"/>
        <path id="Caminho_4" data-name="Caminho 4" d="M407.413,69.606v5.427a3.86,3.86,0,0,0,3.855,3.855h14.478V77.531H411.268a2.5,2.5,0,0,1-2.5-2.5V73h13.221V71.641H408.77V69.606a2.5,2.5,0,0,1,2.5-2.5h14.478V65.751H411.268a3.86,3.86,0,0,0-3.855,3.855" transform="translate(-276.192 -44.574)" fill="#f4f4f4"/>
        <path id="Caminho_5" data-name="Caminho 5" d="M514.362,71.64h-1.053l4.681-5.89h-1.768l-4.656,5.89h-9.04V65.75h-1.383V78.888h1.383V73h11.835a2.264,2.264,0,0,1,1.979,1.233l2.158,4.425h1.542l-2.488-5.035a3.566,3.566,0,0,0-3.191-1.981" transform="translate(-339.733 -44.573)" fill="#f4f4f4"/>
        <path id="Caminho_6" data-name="Caminho 6" d="M612.96,65.75v3.855a2.037,2.037,0,0,1-2.035,2.035h-11.78a2.037,2.037,0,0,1-2.035-2.035V65.75h-1.357v3.855a3.409,3.409,0,0,0,3.392,3.418h5.2v5.865h1.383V73.023h5.2a3.409,3.409,0,0,0,3.392-3.418V65.75Z" transform="translate(-403.87 -44.573)" fill="#f4f4f4"/>
      </g>
    </g>
    <path id="Caminho_18" data-name="Caminho 18" d="M10.862,43.5l2.1-.478V44.71Zm2.789-.478,2.029.462.067.016-2.1,1.211ZM2.915,40.033V33.41l1.848-.617L6.5,37.471l.17.189,6.287,3.114v1.539L8.005,43.442Zm10.736,2.279V40.774l6.287-3.114.171-.189,1.738-4.678,1.848.617v6.623L18.6,43.442ZM3.572,27.608l1.67-1.571,1.611,3.37L5.9,31.686l-.727.242Zm17.135,4.078-.95-2.279,1.612-3.37,1.669,1.571-1.605,4.319ZM7.1,37.1,5.419,32.574l.852-.284.21-.194,1.068-2.567-.006-.282L5.78,25.562l7.525-5.907,7.523,5.907-1.763,3.685-.006.282L20.129,32.1l.209.194.853.284L19.509,37.1l-6.2,3.071Zm1.15-19.059L8.242,17.8,1.547,2.155,9.6,11.531l3.282,7.578-6.828,5.36Zm5.477,1.066,3.283-7.578,8.053-9.376L18.368,17.8l-.009.248,2.2,6.426ZM.691,14.351V1.91L7.555,17.946,5.3,24.525Zm18.365,3.595L25.92,1.91V14.351L21.306,24.525ZM26,0,16.452,11.12l-3.146,7.229-3.092-7.141L.608,0,.366.15,0,.225v14.2L4.933,25.379l-2,1.884-.086.372,1.678,4.51-2.062.688-.236.327v7.058l.153.286L7.745,44.1l.269.05,1.858-.424,3.261,1.884h.345l3.261-1.884,1.857.424.27-.05L24.233,40.5l.153-.286V33.16l-.235-.327-2.063-.688,1.679-4.51-.087-.372-2-1.884,4.9-10.81L26.611.225,26.242.15Z" transform="translate(110.5 37.341)" fill="#f4f4f4"/>
  </g>
</svg>
